<?xml version="1.0" encoding="UTF-8"?>
<!DOCTYPE svg PUBLIC "-//W3C//DTD SVG 1.1//EN" "http://www.w3.org/Graphics/SVG/1.1/DTD/svg11.dtd">
<svg version="1.1" xmlns="http://www.w3.org/2000/svg" xmlns:xlink="http://www.w3.org/1999/xlink" x="0" y="0" width="1024" height="1024" viewBox="0, 0, 1024, 1024">
  <g id="Background">
    <rect x="0" y="0" width="1024" height="1024" fill="#000000" fill-opacity="0"/>
  </g>
  <g id="document">
    <g>
      <path d="M512,1016.894 C233.155,1016.894 7.106,790.845 7.106,512 C7.106,233.155 233.155,7.106 512,7.106 C790.845,7.106 1016.894,233.155 1016.894,512 C1016.894,790.845 790.845,1016.894 512,1016.894 z" fill="#FFFFFF"/>
      <g>
        <path d="M511.998,7.183 C790.659,7.184 1016.819,233.34 1016.819,512 C1016.819,790.66 790.659,1016.817 511.999,1016.817 C233.339,1016.817 7.181,790.66 7.181,512 C7.181,420.123 31.412,334.304 74.827,259.591 L511.998,512 L511.998,7.183 z" fill="#008AE7"/>
        <path d="M736.345,124.504 C789.367,124.845 837.829,119.359 873.988,159.672 C952.177,246.842 955.031,272.706 962.215,280.653 C976.356,316.053 979.383,342.529 981.31,374.181 L879.349,377.393 C877.603,321.914 863.324,280.161 836.512,252.134 C809.7,224.108 769.84,210.929 716.932,212.596 C665.493,214.216 626.973,228.946 601.369,256.784 C575.766,284.623 563.572,317.832 564.787,356.411 C565.39,375.517 570.142,395.043 579.046,414.991 C587.949,434.939 606.628,470.393 635.082,521.354 L815.85,515.657 L817.655,572.974 L661.686,577.888 C665.895,594.675 668.975,607.818 670.93,617.319 C672.884,626.82 674.023,636.714 674.347,647.002 C675.505,683.744 665.626,720.373 644.709,756.892 C623.793,793.409 590.375,830.045 544.457,866.799 C569.404,853.141 594.067,842.158 618.447,833.85 C642.826,825.543 666.774,821.018 690.289,820.277 C716.743,819.444 751.945,824.863 795.895,836.535 C839.845,848.206 894.601,843.614 884.765,853.008 C794.422,939.293 787.393,933.103 779.275,931.72 C776.299,931.191 769.124,927.958 766.2,927.117 C713.678,911.854 672.353,904.697 642.224,905.646 C614.3,906.526 587.996,912.136 563.313,922.476 C548.802,928.818 530.192,939.334 507.485,954.025 L450.455,877.483 C491.061,847.15 523.486,814.039 547.733,778.152 C571.979,742.265 583.454,703.746 582.158,662.595 C581.787,650.838 578.965,637.135 573.69,621.486 C570.438,611.658 565.05,598.22 557.525,581.172 L435.724,585.007 L433.918,527.69 L520.179,524.972 C516.686,519.906 514.953,517.396 511.998,512 C508.445,232.334 511.575,219.141 511.575,211.842 C520.151,201.701 515.16,208.695 523.972,199.09 C569.204,152.244 635.36,127.449 722.438,124.706 L730.061,124.53 L736.345,124.504 z" fill="#FFFFFF" fill-opacity="0.26"/>
        <path d="M274.449,100.886 L266.856,100.886 L266.856,108.584 L274.449,108.584 L274.449,145.715 C274.449,149.311 275.235,152.235 276.806,154.487 C278.377,156.739 281.362,157.865 285.762,157.865 C287.123,157.865 288.389,157.795 289.558,157.655 C290.728,157.516 291.854,157.288 292.936,156.974 L292.936,149.538 C292.238,149.607 291.627,149.651 291.103,149.669 C290.58,149.686 290.091,149.695 289.637,149.695 C287.926,149.695 286.704,149.503 285.971,149.119 C284.644,148.456 283.981,147.146 283.981,145.191 L283.981,108.584 L292.936,108.584 L292.936,100.886 L283.981,100.886 L283.981,85.227 L274.449,85.227 L274.449,100.886 z M302.363,156.974 L311.789,156.974 L311.789,127.228 C311.789,119.757 313.378,114.676 316.555,111.988 C319.732,109.3 323.276,107.956 327.186,107.956 C331.899,107.956 335.112,109.492 336.822,112.564 C337.87,114.485 338.394,117.505 338.394,121.624 L338.394,156.974 L348.082,156.974 L348.082,120.996 C348.082,115.479 347.297,111.168 345.725,108.06 C342.828,102.37 337.311,99.524 329.176,99.524 C324.637,99.524 320.85,100.519 317.812,102.509 C316.031,103.661 314.024,105.652 311.789,108.479 L311.789,79.781 L302.363,79.781 L302.363,156.974 z M362.013,156.974 L371.596,156.974 L371.596,101.148 L362.013,101.148 L362.013,156.974 z M362.013,90.726 L371.596,90.726 L371.596,80.043 L362.013,80.043 L362.013,90.726 z M385.841,156.974 L395.267,156.974 L395.267,127.595 C395.267,123.929 395.503,121.109 395.975,119.137 C396.446,117.164 397.467,115.253 399.038,113.402 C400.993,111.098 403.263,109.562 405.847,108.794 C407.278,108.34 409.111,108.113 411.345,108.113 C415.744,108.113 418.782,109.858 420.458,113.35 C421.47,115.445 421.976,118.203 421.976,121.624 L421.976,156.974 L431.56,156.974 L431.56,120.996 C431.56,115.34 430.792,110.993 429.256,107.956 C426.463,102.405 421.086,99.629 413.126,99.629 C409.495,99.629 406.195,100.345 403.228,101.776 C400.26,103.208 397.449,105.564 394.796,108.846 L394.796,100.886 L385.841,100.886 L385.841,156.974 z M445.281,156.974 L454.341,156.974 L454.341,135.921 L462.249,128.695 L479.741,156.974 L491.786,156.974 L469.11,121.886 L490.581,100.886 L478.536,100.886 L454.341,124.714 L454.341,80.043 L445.281,80.043 L445.281,156.974 z M172.275,286.574 L182.225,286.574 L182.225,241.168 C182.225,239.353 182.182,236.516 182.094,232.658 C182.007,228.8 181.963,225.929 181.963,224.043 L181.963,221.686 L204.064,286.574 L214.381,286.574 L236.324,221.686 C236.324,225.841 236.289,229.734 236.219,233.365 C236.149,236.996 236.114,239.597 236.114,241.168 L236.114,286.574 L246.013,286.574 L246.013,209.641 L231.244,209.641 L209.301,274.685 L187.201,209.641 L172.275,209.641 L172.275,286.574 z M267.851,271.648 C267.851,268.052 269.299,265.433 272.198,263.792 C273.908,262.815 276.474,262.099 279.896,261.645 L285.604,260.912 C287.35,260.703 289.13,260.353 290.946,259.865 C292.762,259.376 294.246,258.765 295.398,258.031 L295.398,265.625 C295.398,271.421 292.779,275.593 287.542,278.142 C284.435,279.678 281.223,280.446 277.906,280.446 C275.182,280.446 272.826,279.66 270.836,278.09 C268.846,276.518 267.851,274.371 267.851,271.648 z M275.654,254.47 C270.382,255.134 266.122,256.897 262.876,259.76 C259.629,262.623 258.005,266.655 258.005,271.857 C258.005,276.606 259.655,280.56 262.954,283.719 C266.253,286.879 270.504,288.459 275.706,288.459 C280.036,288.459 283.998,287.534 287.594,285.683 C291.19,283.833 293.948,281.651 295.869,279.137 C296.183,281.371 296.724,283.099 297.492,284.321 C298.959,286.626 301.315,287.778 304.562,287.778 C305.889,287.778 306.936,287.726 307.705,287.621 C308.472,287.516 309.59,287.254 311.056,286.835 L311.056,279.87 C310.463,279.974 309.904,280.053 309.38,280.105 C308.857,280.158 308.385,280.184 307.967,280.184 C306.674,280.184 305.828,279.888 305.426,279.294 C305.025,278.7 304.824,277.915 304.824,276.937 L304.824,244.625 C304.824,239.318 302.782,235.407 298.697,232.894 C294.577,230.38 289.218,229.123 282.619,229.123 C276.928,229.123 271.927,230.476 267.615,233.182 C263.303,235.888 261.06,240.697 260.885,247.61 L269.684,247.61 C270.033,244.712 270.783,242.53 271.936,241.064 C273.996,238.41 277.487,237.083 282.41,237.083 C286.669,237.083 289.942,237.808 292.229,239.257 C294.516,240.706 295.659,243.036 295.659,246.248 C295.659,247.819 295.45,249.024 295.031,249.862 C294.298,251.398 292.849,252.306 290.684,252.585 L275.654,254.47 z M320.535,286.574 L329.962,286.574 L329.962,254.313 C329.962,250.333 331.236,246.816 333.785,243.761 C336.334,240.706 339.982,239.178 344.73,239.178 C345.289,239.178 345.804,239.196 346.275,239.231 C346.747,239.265 347.261,239.335 347.82,239.44 L347.82,229.49 C346.808,229.385 346.092,229.315 345.673,229.28 C345.254,229.245 344.957,229.228 344.783,229.228 C341.047,229.228 337.748,230.581 334.885,233.287 C332.022,235.993 330.224,238.288 329.491,240.173 L329.491,230.485 L320.535,230.485 L320.535,286.574 z M375.786,229.49 C369.292,229.49 363.75,232.126 359.158,237.398 C354.567,242.669 352.272,250.002 352.272,259.393 C352.272,269.344 354.549,276.475 359.106,280.786 C363.662,285.098 368.978,287.254 375.053,287.254 C379.417,287.254 382.925,286.556 385.579,285.159 C388.232,283.763 390.502,281.633 392.387,278.77 C392.492,286.486 391.881,291.845 390.554,294.848 C388.32,299.945 383.589,302.494 376.362,302.494 C371.788,302.494 368.437,301.446 366.307,299.352 C364.945,297.99 364.038,296.053 363.583,293.538 L354,293.538 C354.489,299.299 356.793,303.532 360.913,306.238 C365.033,308.944 370.112,310.297 376.152,310.297 C387.01,310.297 394.395,306.492 398.305,298.88 C400.4,294.76 401.447,289.139 401.447,282.017 L401.447,231.008 L392.754,231.008 L392.754,238.079 C390.904,235.739 389.088,233.959 387.307,232.737 C384.025,230.572 380.185,229.49 375.786,229.49 z M392.754,258.293 C392.754,262.902 391.986,266.934 390.449,270.391 C387.691,276.501 382.925,279.556 376.152,279.556 C371.823,279.556 368.375,277.906 365.81,274.607 C363.243,271.307 361.96,266.498 361.96,260.179 C361.96,254.802 362.606,250.455 363.898,247.139 C366.342,240.924 370.881,237.817 377.514,237.817 C381.948,237.817 385.597,239.492 388.46,242.844 C391.323,246.196 392.754,251.346 392.754,258.293 z M415.64,286.574 L425.223,286.574 L425.223,230.746 L415.64,230.746 L415.64,286.574 z M415.64,220.325 L425.223,220.325 L425.223,209.641 L415.64,209.641 L415.64,220.325 z M439.468,286.574 L448.895,286.574 L448.895,257.194 C448.895,253.527 449.13,250.708 449.602,248.736 C450.073,246.763 451.094,244.852 452.665,243.001 C454.62,240.697 456.89,239.161 459.474,238.393 C460.905,237.939 462.738,237.712 464.972,237.712 C469.371,237.712 472.409,239.458 474.085,242.949 C475.097,245.044 475.604,247.802 475.604,251.224 L475.604,286.574 L485.187,286.574 L485.187,250.595 C485.187,244.939 484.419,240.592 482.883,237.555 C480.09,232.003 474.713,229.228 466.753,229.228 C463.122,229.228 459.823,229.943 456.855,231.375 C453.887,232.806 451.077,235.163 448.423,238.445 L448.423,230.485 L439.468,230.485 L439.468,286.574 z" fill="#008AE7"/>
        <path d="M583.724,890.301 C581.102,934.832 568.563,972.533 546.108,1003.406 C542.768,1008.254 540.829,1011.151 537.378,1015.922 C479.293,1018.114 476.017,1015.666 471.784,1015.056 C436.701,1012.19 436.891,1011.29 438.985,1011.082 C474.373,1009.818 500.147,992.886 517.547,959.895 C526.694,942.522 533.163,919.882 536.954,891.974 L583.724,890.301 z" fill="#FFFFFF" fill-opacity="0.26"/>
        <path d="M429.039,618.335 C467.711,617.592 503.358,628.831 530.678,656.895 C556.455,684.129 571.321,715.584 575.277,751.259 L528.507,752.929 C522.372,725.952 511.082,704.808 494.638,689.498 C478.194,674.189 455.721,667.043 427.219,668.062 C392.213,669.313 364.521,684.955 344.143,714.987 C332.857,731.479 325.086,752.538 320.831,778.164 L480.938,772.442 L470.343,813.617 L316.548,819.113 C316.323,828.89 316.405,839.229 316.795,850.133 C316.973,855.106 317.239,859.885 317.594,864.469 L484.014,858.521 L473.419,899.696 L323.354,905.059 C328.841,929.954 337.746,951.375 350.071,969.322 C357.655,981.633 397.687,1004.375 383.922,1000.603 C360.069,994.066 337.337,986.274 335.171,985.263 C312.954,974.894 298.242,970.663 292.11,966.423 C282.6,946.44 278.765,928.385 274.289,906.813 L201.982,909.397 L212.577,868.221 L268.815,866.212 C268.153,858.383 267.675,850.356 267.381,842.13 C267.128,835.053 267.066,827.968 267.196,820.877 L198.905,823.317 L209.501,782.142 L270.33,779.968 C275.584,744.731 286.647,713.978 303.52,687.709 C331.817,643.412 372.267,620.323 424.871,618.443 L429.039,618.335 z" fill="#FFFFFF" fill-opacity="0.26"/>
        <path d="M176.396,318.252 L204.74,334.655 L204.449,357.886 C244.225,361.144 274.645,373.247 295.711,394.195 C316.777,415.143 327.614,442.626 328.224,476.643 L275.714,476.04 C274.489,460.821 270.539,447.672 263.864,436.592 C251.494,416.244 231.513,405.411 203.92,404.094 L202.244,549.918 C248.503,563.454 279.868,576.018 296.34,587.61 C323.128,606.724 336.311,634.684 335.889,671.49 C335.278,724.699 317.54,762.307 282.677,784.313 C263.331,796.494 235.532,804.378 199.28,807.962 L198.611,866.172 L170.106,865.845 L170.775,807.635 C139.095,804.352 109.385,800.517 83.643,779.923 C79.485,776.596 43.17,701.748 39.011,689.828 C35.301,679.192 37.04,673.596 36.803,662.352 L89.912,662.962 C91.198,690.386 95.269,710.438 102.125,723.121 C114.268,745.868 137.126,758.834 170.699,762.02 L172.577,598.492 C129.464,589.795 97.717,575.726 77.334,556.286 C56.95,536.846 46.955,510.123 47.345,476.117 C47.694,445.712 59.161,418.436 81.745,394.288 C104.329,370.14 135.727,358.097 175.938,358.158 L176.396,318.252 z M201.6,606.028 L201.6,606.028 L199.786,763.854 C234.011,762.647 257.759,750.417 271.03,727.162 C277.969,715.238 281.529,701.375 281.711,685.572 C281.998,660.568 273.015,641.459 254.761,628.245 C244.246,620.522 226.526,613.117 201.6,606.028 L201.6,606.028 z M174.824,402.859 C148.609,403.559 129.864,411.345 118.59,426.221 C107.315,441.096 101.584,456.735 101.396,473.137 C101.168,492.941 107.541,508.519 120.515,519.871 C133.488,531.223 151.052,539.228 173.205,543.883 L174.824,402.859 z" fill="#FFFFFF" fill-opacity="0.26"/>
        <path d="M625.625,213.217 L677.465,299.688 L642.358,299.908 L642.524,326.433 L692.844,326.118 L718.076,368.48 L651.958,368.894 L652.123,395.225 L722.922,394.781 L723.498,486.644 L760.361,486.413 L759.785,394.549 L832.534,394.093 L832.369,367.763 L764.301,368.19 L789.194,325.513 L838.539,325.204 L838.372,298.678 L804.241,298.892 L855.382,211.776 L811.888,212.048 L741.134,344.149 L669.119,212.944 L625.625,213.217 z" fill="#FFFFFF" fill-opacity="0.26"/>
      </g>
    </g>
  </g>
</svg>
